<svg xmlns="http://www.w3.org/2000/svg" width="55" height="60" fill="none"><mask id="a" width="26" height="28" x="0" y="17" maskUnits="userSpaceOnUse" style="mask-type:luminance"><path fill="#fff" d="M17.616 19.396C13.88 17.597 5.167 15.108 1.74 22.208c-2.843 5.886-2.66 18.059 4.088 21.317 6.424 3.104 16.153-3.643 19.242-10.067 3.488-7.192-3.704-12.249-7.454-14.062Z"/></mask><g mask="url(#a)"><path fill="url(#b)" d="M28.558 15.107H-1.104V46.63h29.662V15.107Z"/></g><mask id="c" width="15" height="24" x="0" y="17" maskUnits="userSpaceOnUse" style="mask-type:luminance"><path fill="#fff" d="M8.825 17.49c-2.813.215-5.502 1.444-7.085 4.703-2.336 4.825-2.628 13.862 1.045 18.765 6.747-.261 12.157-5.825 12.157-12.633 0-4.595-2.46-8.607-6.117-10.835Z"/></mask><g mask="url(#c)"><path fill="url(#d)" d="M14.942 17.49H-.888v23.468h15.83V17.49Z"/></g><path fill="#E60000" fill-rule="evenodd" d="M10.838 31.137c-.446.154-.907.661-1.153 1.337-.138.37-.4 1.276.123 1.46.507.185.907-.66 1.045-1.03.246-.676.23-1.352-.015-1.767Zm4.027 1.614c-.43.154-.846.615-1.076 1.245-.123.338-.37 1.199.107 1.368.477.184.846-.63.984-.968.23-.615.2-1.245-.015-1.645Zm5.148-3.32c-.446.17-.907.661-1.153 1.337-.138.37-.4 1.276.123 1.46.508.185.907-.66 1.046-1.03.245-.675.215-1.352-.016-1.767Zm-5.24-1.951c-.446.169-.907.66-1.153 1.337-.139.368-.4 1.275.123 1.46.507.184.906-.661 1.045-1.03.246-.692.23-1.352-.016-1.767Zm-5.226-1.968c-.446.154-.907.661-1.153 1.337-.138.37-.4 1.276.123 1.46.507.185.907-.66 1.045-1.03.23-.675.216-1.352-.015-1.767ZM5.351 24.16c-.445.154-.906.66-1.152 1.337-.139.369-.4 1.276.123 1.46.507.184.906-.66 1.045-1.03.246-.676.23-1.352-.016-1.767Zm3.474-3.212c-.385.138-.769.568-.984 1.152-.123.323-.338 1.092.108 1.26.445.17.783-.568.891-.89.2-.585.184-1.169-.015-1.522Zm5.81 1.782c-.462.093-.985.508-1.338 1.122-.184.339-.584 1.184-.108 1.46.477.262 1-.507 1.184-.86.353-.615.43-1.276.261-1.722Zm4.579 2.214c-.369.138-.738.538-.938 1.076-.107.291-.322 1.03.093 1.183.415.154.737-.538.845-.845.215-.523.2-1.076 0-1.414Zm-14.14 10.25c-.414.154-.83.6-1.06 1.23-.123.338-.353 1.168.108 1.337.476.17.83-.614.953-.953.246-.614.215-1.23 0-1.613Zm3.889 2.967c-.415.154-.83.6-1.06 1.23-.123.337-.37 1.167.107 1.336.477.17.83-.614.953-.952.23-.615.215-1.23 0-1.614Zm-2.705-8.33c-.415.154-.83.6-1.06 1.23-.123.338-.37 1.167.107 1.337.477.169.83-.615.953-.953.23-.615.215-1.23 0-1.614Z" clip-rule="evenodd"/><mask id="e" width="28" height="25" x="13" y="0" maskUnits="userSpaceOnUse" style="mask-type:luminance"><path fill="#fff" d="M13.466 1.69c3.674 2.951 7.546 6.917 10.051 11.05 3.335 5.749 2.26 11.789 2.26 11.789 2.028-6.962 7.192-7.792 11.142-12.126 2.32-2.552 4.058-6.179 3.996-11.312-.722-.86-13.494-.937-15.292 9.96C24.086 7.914 21.612 3.857 17.816 0c-1.491.43-2.951.999-4.35 1.69Z"/></mask><g mask="url(#e)"><path fill="url(#f)" d="m27.222 38.284 26.019-26.02-26.02-26.02-26.019 26.02 26.02 26.02Z"/></g><mask id="g" width="16" height="24" x="25" y="1" maskUnits="userSpaceOnUse" style="mask-type:luminance"><path fill="#fff" d="M25.853 20.21c.246 2.536-.077 4.319-.077 4.319 2.03-6.962 7.193-7.792 11.143-12.126 2.182-2.413 3.857-5.779 3.98-10.466-.722 1.813-2.013 3.888-4.303 5.532-5.225 3.735-10.45 8.207-10.743 12.741Z"/></mask><g mask="url(#g)"><path fill="url(#h)" d="m33.338 32.09 18.858-18.858L33.338-5.624 14.48 13.233 33.338 32.09Z"/></g><mask id="i" width="17" height="18" x="8" y="6" maskUnits="userSpaceOnUse" style="mask-type:luminance"><path fill="#fff" d="M8.01 6.409s.215 8.314 7.885 10.789c4.272 1.721 7.284 3.765 8.79 5.917-.999-9.514-5.21-17.09-16.675-16.706Z"/></mask><g mask="url(#i)"><path fill="url(#j)" d="M24.685 6.024H8.01V23.13h16.675V6.024Z"/></g><mask id="k" width="17" height="18" x="8" y="6" maskUnits="userSpaceOnUse" style="mask-type:luminance"><path fill="#fff" d="M8.01 6.409s.031 1.091.43 2.582c0 0 13.31-.077 16.245 14.124-.999-9.514-5.21-17.09-16.675-16.706Z"/></mask><g mask="url(#k)"><path fill="url(#l)" d="M28.973 7.162 9.133 1.844 3.737 21.977l19.84 5.318 5.395-20.133Z"/></g><mask id="m" width="30" height="31" x="11" y="30" maskUnits="userSpaceOnUse" style="mask-type:luminance"><path fill="#fff" d="M25.746 30.922c8.023 0 14.539 6.501 14.539 14.54 0 8.022-6.501 14.538-14.54 14.538-8.022 0-14.538-6.5-14.538-14.539 0-8.038 6.501-14.539 14.539-14.539Z"/></mask><g mask="url(#m)"><path fill="url(#n)" d="M40.285 30.922H11.207V60h29.078V30.922Z"/></g><mask id="o" width="20" height="29" x="21" y="31" maskUnits="userSpaceOnUse" style="mask-type:luminance"><path fill="#fff" d="M28.59 31.199A14.532 14.532 0 0 1 40.27 45.46c0 8.024-6.503 14.54-14.54 14.54a14.74 14.74 0 0 1-4.533-.722c9.329.706 16.89-18.212 7.392-28.08Z"/></mask><g mask="url(#o)"><path fill="url(#p)" d="M40.27 31.199H21.197v28.785H40.27V31.2Z"/></g><mask id="q" width="16" height="25" x="11" y="31" maskUnits="userSpaceOnUse" style="mask-type:luminance"><path fill="#fff" d="M15.341 55.62a14.453 14.453 0 0 1-4.134-10.159c0-7.131 5.133-13.063 11.91-14.293a14.9 14.9 0 0 1 3.766 9.913c0 7.07-4.918 13.002-11.542 14.539Z"/></mask><g mask="url(#q)"><path fill="url(#r)" d="M26.883 31.152H11.207v24.452h15.676V31.152Z"/></g><path fill="#fff" fill-rule="evenodd" d="M25.162 57.51c-5.625-1.552-9.774-6.7-9.774-12.833a13.286 13.286 0 0 1 3.965-9.483c-2.475 1.553-4.365 3.966-5.21 6.84a11.89 11.89 0 0 0-.492 3.412c.015 6.485 5.118 11.772 11.511 12.064Z" clip-rule="evenodd"/><mask id="s" width="28" height="43" x="27" y="15" maskUnits="userSpaceOnUse" style="mask-type:luminance"><path fill="#fff" d="M51.642 45.553c-2.228 5.333-7.868 14.155-15.138 10.682-3.888-1.86-2.643-5.61-3.58-9.022-2.629-9.605-7.762-13.202-5.119-22.27 5.318-18.15 36.132-8.76 23.837 20.61Z"/></mask><g mask="url(#s)"><path fill="url(#t)" d="M63.938 6.793H25.162v52.915h38.776V6.793Z"/></g><mask id="u" width="20" height="30" x="35" y="28" maskUnits="userSpaceOnUse" style="mask-type:luminance"><path fill="#fff" d="M51.642 45.553c-2.228 5.333-7.868 14.155-15.138 10.681-.23-.107-.43-.23-.63-.353 5.948.108 20.133-13.31 18.181-27.68.984 4.611.492 10.42-2.413 17.352Z"/></mask><g mask="url(#u)"><path fill="url(#v)" d="M55.992 28.202H35.859v31.506h20.133V28.202Z"/></g><mask id="w" width="18" height="27" x="27" y="15" maskUnits="userSpaceOnUse" style="mask-type:luminance"><path fill="#fff" d="M31.033 41.865c-2.552-6.01-5.333-9.76-3.228-16.937 2.137-7.3 8.407-10.143 14.34-9.006 1.306 2.505 2.028 5.364 2.028 8.391.015 8.315-5.533 15.338-13.14 17.552Z"/></mask><g mask="url(#w)"><path fill="url(#x)" d="M44.189 14.785H25.715v27.08H44.19v-27.08Z"/></g><path fill="#fff" fill-rule="evenodd" d="M35.397 43.955s-6.055-7.469-5.486-15.63c.4-5.656 4.933-6.27 3.073.354-.922 3.273.031 8.499 2.413 15.276Z" clip-rule="evenodd"/><defs><linearGradient id="d" x1="21.753" x2="2.156" y1="29.232" y2="29.232" gradientUnits="userSpaceOnUse"><stop stop-color="red"/><stop offset="1" stop-color="#F38288"/></linearGradient><linearGradient id="n" x1="12.543" x2="33.779" y1="45.456" y2="45.456" gradientUnits="userSpaceOnUse"><stop stop-color="#FFBE04"/><stop offset="1" stop-color="#FF7F00"/></linearGradient><linearGradient id="f" x1="25.54" x2="41.947" y1="13.95" y2="-2.457" gradientUnits="userSpaceOnUse"><stop stop-color="#4BBC39"/><stop offset="1" stop-color="#BEDE19"/></linearGradient><linearGradient id="h" x1="27.319" x2="43.892" y1="19.258" y2="2.685" gradientUnits="userSpaceOnUse"><stop stop-color="#3AA34E"/><stop offset="1" stop-color="#BEDE19"/></linearGradient><linearGradient id="j" x1="20.371" x2="3.553" y1="14.571" y2="14.571" gradientUnits="userSpaceOnUse"><stop stop-color="#4BBC39"/><stop offset="1" stop-color="#BEDE19"/></linearGradient><linearGradient id="l" x1="24.261" x2="4.311" y1="16.69" y2="11.344" gradientUnits="userSpaceOnUse"><stop stop-color="#3AA34E"/><stop offset="1" stop-color="#BEDE19"/></linearGradient><linearGradient id="b" x1="21.692" x2="-2.983" y1="30.871" y2="30.871" gradientUnits="userSpaceOnUse"><stop stop-color="red"/><stop offset="1" stop-color="#F38288"/></linearGradient><linearGradient id="p" x1="12.38" x2="29.436" y1="45.597" y2="45.597" gradientUnits="userSpaceOnUse"><stop stop-color="#FFBE04"/><stop offset="1" stop-color="#FF7F00"/></linearGradient><linearGradient id="r" x1="18.645" x2="33.579" y1="43.389" y2="43.389" gradientUnits="userSpaceOnUse"><stop stop-color="#FFBE04"/><stop offset="1" stop-color="#FF7F00"/></linearGradient><linearGradient id="t" x1="52.3" x2="29.093" y1="33.251" y2="33.251" gradientUnits="userSpaceOnUse"><stop stop-color="#016737"/><stop offset="1" stop-color="#4BBC39"/></linearGradient><linearGradient id="v" x1="47.809" x2="32.088" y1="43.959" y2="43.959" gradientUnits="userSpaceOnUse"><stop stop-color="#016737"/><stop offset="1" stop-color="#4BBC39"/></linearGradient><linearGradient id="x" x1="52.47" x2="31.904" y1="28.328" y2="28.328" gradientUnits="userSpaceOnUse"><stop stop-color="#016737"/><stop offset="1" stop-color="#4BBC39"/></linearGradient></defs></svg>